<svg width="49" height="39" viewBox="0 0 49 39" fill="none" xmlns="http://www.w3.org/2000/svg">
<path d="M47.8364 31.8427C47.9222 31.9289 47.9903 32.0314 48.0368 32.1441C48.0832 32.2568 48.1071 32.3776 48.1071 32.4997C48.1071 32.6217 48.0832 32.7425 48.0368 32.8552C47.9903 32.968 47.9222 33.0704 47.8364 33.1566L42.298 38.7279C42.1248 38.9021 41.8899 39 41.645 39C41.4 39 41.1651 38.9021 40.9919 38.7279C40.8187 38.5536 40.7214 38.3173 40.7214 38.0709C40.7214 37.8245 40.8187 37.5882 40.9919 37.414L44.9541 33.4282H40.0157C37.5182 33.4255 35.0571 32.8244 32.8364 31.6747C30.6156 30.525 28.699 28.8598 27.2452 26.8169L17.6199 13.2625C16.3374 11.4596 14.6463 9.99001 12.6868 8.97553C10.7272 7.96106 8.5555 7.43087 6.35164 7.42889H1.03018C0.785368 7.42889 0.550584 7.33106 0.377476 7.15693C0.204368 6.98279 0.107117 6.74661 0.107117 6.50034C0.107117 6.25408 0.204368 6.0179 0.377476 5.84376C0.550584 5.66962 0.785368 5.5718 1.03018 5.5718H6.35164C8.84922 5.57453 11.3102 6.1756 13.531 7.32528C15.7518 8.47495 17.6684 10.1402 19.1222 12.1831L28.7475 25.7375C30.03 27.5404 31.721 29.01 33.6806 30.0245C35.6402 31.0389 37.8119 31.5691 40.0157 31.5711H44.9541L40.9919 27.5853C40.8187 27.4111 40.7214 27.1748 40.7214 26.9284C40.7214 26.682 40.8187 26.4457 40.9919 26.2714C41.1651 26.0972 41.4 25.9993 41.645 25.9993C41.8899 25.9993 42.1248 26.0972 42.298 26.2714L47.8364 31.8427ZM27.1852 13.866C27.2838 13.9369 27.3954 13.9876 27.5135 14.0151C27.6316 14.0426 27.7539 14.0464 27.8735 14.0264C27.993 14.0063 28.1075 13.9628 28.2103 13.8982C28.3132 13.8337 28.4024 13.7494 28.4728 13.6502L28.7475 13.2625C30.03 11.4596 31.721 9.99001 33.6806 8.97553C35.6402 7.96106 37.8119 7.43087 40.0157 7.42889H44.9541L40.9919 11.4147C40.8187 11.5889 40.7214 11.8252 40.7214 12.0716C40.7214 12.318 40.8187 12.5543 40.9919 12.7286C41.1651 12.9028 41.4 13.0007 41.645 13.0007C41.8899 13.0007 42.1248 12.9028 42.298 12.7286L47.8364 7.15729C47.9222 7.07105 47.9903 6.96865 48.0368 6.85592C48.0832 6.7432 48.1071 6.62237 48.1071 6.50034C48.1071 6.37832 48.0832 6.25749 48.0368 6.14477C47.9903 6.03204 47.9222 5.92963 47.8364 5.8434L42.298 0.272116C42.1248 0.0978826 41.8899 0 41.645 0C41.4 0 41.1651 0.0978826 40.9919 0.272116C40.8187 0.446349 40.7214 0.68266 40.7214 0.929063C40.7214 1.17547 40.8187 1.41178 40.9919 1.58601L44.9541 5.5718H40.0157C37.5182 5.57453 35.0571 6.1756 32.8364 7.32528C30.6156 8.47495 28.699 10.1402 27.2452 12.1831L26.9706 12.5707C26.9001 12.6699 26.8498 12.7822 26.8224 12.901C26.7951 13.0198 26.7912 13.1428 26.8112 13.2631C26.8311 13.3834 26.8744 13.4985 26.9386 13.602C27.0027 13.7054 27.0865 13.7952 27.1852 13.866ZM19.1822 25.134C19.0836 25.0631 18.972 25.0124 18.8539 24.9849C18.7358 24.9574 18.6135 24.9536 18.4939 24.9736C18.3744 24.9937 18.2599 25.0372 18.157 25.1018C18.0542 25.1663 17.965 25.2506 17.8945 25.3498L17.6199 25.7375C16.3374 27.5404 14.6463 29.01 12.6868 30.0245C10.7272 31.0389 8.5555 31.5691 6.35164 31.5711H1.03018C0.785368 31.5711 0.550584 31.6689 0.377476 31.8431C0.204368 32.0172 0.107117 32.2534 0.107117 32.4997C0.107117 32.7459 0.204368 32.9821 0.377476 33.1562C0.550584 33.3304 0.785368 33.4282 1.03018 33.4282H6.35164C8.84922 33.4255 11.3102 32.8244 13.531 31.6747C15.7518 30.525 17.6684 28.8598 19.1222 26.8169L19.3968 26.4293C19.4673 26.3301 19.5176 26.2178 19.545 26.099C19.5723 25.9802 19.5761 25.8572 19.5562 25.7369C19.5363 25.6166 19.493 25.5015 19.4288 25.398C19.3647 25.2946 19.2809 25.2048 19.1822 25.134Z" fill="black"/>
</svg>
