{
	"asset":{
		"generator":"Khronos glTF Blender I/O v4.4.55",
		"version":"2.0"
	},
	"scene":0,
	"scenes":[
		{
			"name":"Scene",
			"nodes":[
				0
			]
		}
	],
	"nodes":[
		{
			"mesh":0,
			"name":"cassette"
		}
	],
	"materials":[
		{
			"alphaMode":"BLEND",
			"doubleSided":true,
			"name":"cassette",
			"normalTexture":{
				"index":0
			},
			"pbrMetallicRoughness":{
				"baseColorTexture":{
					"index":1
				},
				"metallicRoughnessTexture":{
					"index":2
				}
			}
		}
	],
	"meshes":[
		{
			"name":"Cube",
			"primitives":[
				{
					"attributes":{
						"POSITION":0,
						"NORMAL":1,
						"TEXCOORD_0":2
					},
					"indices":3,
					"material":0
				}
			]
		}
	],
	"textures":[
		{
			"sampler":0,
			"source":0
		},
		{
			"sampler":0,
			"source":1
		},
		{
			"sampler":0,
			"source":2
		}
	],
	"images":[
		{
			"mimeType":"image/png",
			"name":"cassette_Normal",
			"uri":"cassette_Normal.png"
		},
		{
			"mimeType":"image/png",
			"name":"cassette01_BaseColor-cassette_Opacity",
			"uri":"cassette01_BaseColor-cassette_Opacity.png"
		},
		{
			"mimeType":"image/png",
			"name":"cassette_Metallic-cassette_Roughness",
			"uri":"cassette_Metallic-cassette_Roughness.png"
		}
	],
	"accessors":[
		{
			"bufferView":0,
			"componentType":5126,
			"count":5475,
			"max":[
				2.0176637172698975,
				1.5084320306777954,
				0.17172876000404358
			],
			"min":[
				-2.0176637172698975,
				-1.0156399011611938,
				-0.24776092171669006
			],
			"type":"VEC3"
		},
		{
			"bufferView":1,
			"componentType":5126,
			"count":5475,
			"type":"VEC3"
		},
		{
			"bufferView":2,
			"componentType":5126,
			"count":5475,
			"type":"VEC2"
		},
		{
			"bufferView":3,
			"componentType":5123,
			"count":15984,
			"type":"SCALAR"
		}
	],
	"bufferViews":[
		{
			"buffer":0,
			"byteLength":65700,
			"byteOffset":0,
			"target":34962
		},
		{
			"buffer":0,
			"byteLength":65700,
			"byteOffset":65700,
			"target":34962
		},
		{
			"buffer":0,
			"byteLength":43800,
			"byteOffset":131400,
			"target":34962
		},
		{
			"buffer":0,
			"byteLength":31968,
			"byteOffset":175200,
			"target":34963
		}
	],
	"samplers":[
		{
			"magFilter":9729,
			"minFilter":9987
		}
	],
	"buffers":[
		{
			"byteLength":207168,
			"uri":"cassette.bin"
		}
	]
}
